<svg width="2000" height="2000" viewBox="0 0 2000 2000" fill="none" xmlns="http://www.w3.org/2000/svg">
<g clip-path="url(#clip0_3_3)">
<rect width="2000" height="2000" fill="white"/>
<path d="M1105 1760C1005 1760 912.333 1742 827 1706C741.667 1668.67 667 1617.33 603 1552C540.333 1486.67 491.667 1410.67 457 1324C422.333 1237.33 405 1144.67 405 1046C405 946 422.333 852.667 457 766C491.667 679.333 540.333 604 603 540C667 474.667 741 424 825 388C910.333 350.667 1003 332 1103 332C1212.33 332 1308.33 350.667 1391 388C1473.67 425.333 1547 476 1611 540L1481 670C1437 620.667 1383 582 1319 554C1256.33 526 1184.33 512 1103 512C1029.67 512 962.333 525.333 901 552C839.667 577.333 786.333 614 741 662C695.667 710 660.333 766.667 635 832C611 897.333 599 968.667 599 1046C599 1123.33 611 1194.67 635 1260C660.333 1325.33 695.667 1382 741 1430C786.333 1478 839.667 1515.33 901 1542C962.333 1567.33 1029.67 1580 1103 1580C1189.67 1580 1265 1566 1329 1538C1393 1508.67 1447 1469.33 1491 1420L1621 1548C1557 1614.67 1481.67 1666.67 1395 1704C1309.67 1741.33 1213 1760 1105 1760Z" fill="black"/>
<path d="M1174.32 974.426L1525.16 1524.63C1525.16 1524.63 1418 1583.82 1339.83 1605.41C1261.66 1627.01 1169.74 1641.01 1060.69 1631.26C951.64 1621.51 791.755 1557.55 791.755 1557.55L859.724 1459.62L1174.32 974.426Z" stroke="black" stroke-width="130"/>
</g>
<defs>
<clipPath id="clip0_3_3">
<rect width="2000" height="2000" fill="white"/>
</clipPath>
</defs>
</svg>
